# xmcd
# 
# Track frame offsets:
#     183
#     24500
#     36408
#     44883
#     62358
#     72970
#     96258
#     107085
#     121233
#     138483
#     159033
#     167358
#     192033
#     208545
# 
# Disc length: 3134
# 
# Revision: 8
# Processed by: cddbd v1.5.2PL0 Copyright (c) Steve Scherf et al.
# Submitted via: BonkEnc v1.0.8
# 
DISCID=ba0c3c0e
DTITLE=Mozart - Requiem d-moll KV 626, en ré mineur (Karajan, Wiener Philharmoniker)
DYEAR=1987
DGENRE=Classical
TTITLE0=I. INTROITUS - Requiem  (Adagio)
TTITLE1=II. KYRIE  (Allegro - Adagio)
TTITLE2=III. SEQUENZ - N°1. Dies irae  (Allegro assai)
TTITLE3=III. SEQUENZ - N°2. Tuba mirum  (Andante)
TTITLE4=III. SEQUENZ - N°3. Rex tremendae
TTITLE5=III. SEQUENZ - N°4. Recordare
TTITLE6=III. SEQUENZ - N°5. Confutatis  (Andante)
TTITLE7=III. SEQUENZ - N°6. Lacrimosa
TTITLE8=IV. OFFERTORIUM - N°1. Domine Jesu  (Andante con moto)
TTITLE9=IV. OFFERTORIUM - N°2. Hostias  (Andante - Andante con moto)
TTITLE10=V. SANCTUS  (Adagio - Allegro)
TTITLE11=VI. BENEDICTUS  (Andante - Allegro)
TTITLE12=VII. AGNUS DEI
TTITLE13=VIII. COMMUNIO - Lux aeterna
EXTD=YEAR: 1987
EXTT0=
EXTT1=
EXTT2=
EXTT3=
EXTT4=
EXTT5=
EXTT6=
EXTT7=
EXTT8=
EXTT9=
EXTT10=
EXTT11=
EXTT12=
EXTT13=
PLAYORDER=
